<svg width="77" height="77" viewBox="0 0 77 77" fill="none" xmlns="http://www.w3.org/2000/svg">
<g clip-path="url(#clip0_1_263)">
<path d="M59.3556 27.2397C59.3556 29.0661 57.8706 30.5512 56.0441 30.5512C54.2177 30.5512 52.7326 29.0661 52.7326 27.2397C52.7326 25.4132 54.2177 23.9282 56.0441 23.9282C57.8706 23.9282 59.3556 25.4132 59.3556 27.2397ZM31.431 17.6466C28.4065 17.6466 25.9412 20.1119 25.9412 23.1385C25.9412 26.1673 28.4065 28.6305 31.431 28.6305C34.4577 28.6305 36.9209 26.1673 36.9209 23.1385C36.9209 20.114 34.4598 17.6466 31.431 17.6466ZM68.7057 28.1843C68.49 33.3998 61.3015 42.8923 61.3015 42.8923C55.5645 51.1344 58.3796 57.4976 58.3796 57.4976C46.8009 60.1032 37.3042 77.0021 37.3042 77.0021C36.8832 74.5033 31.3221 63.9363 31.3221 63.9363C28.993 61.0123 25.0887 62.0386 22.9795 62.2983C16.9346 63.0398 15.4307 61.2615 15.4307 61.2615C14.1091 60.4551 14.7353 57.0892 14.7353 57.0892C15.2213 55.3465 14.4295 54.4961 13.9373 53.8175C12.6115 51.9638 13.3802 51.1071 13.3802 51.1071C13.7949 50.5814 13.5163 50.3028 13.5163 50.3028C12.0564 49.819 11.9517 49.021 11.9517 49.021L11.9894 46.3399C12.2282 44.5009 11.3966 44.392 11.3966 44.392C8.0558 44.3271 8.12911 42.1676 8.12911 42.1676C7.99296 40.9883 12.0187 33.892 12.0187 33.892C13.8954 30.2768 11.227 28.1131 11.0447 26.2469C10.2153 17.6215 13.1309 12.3453 17.0833 8.17087C23.6204 1.25465 32.0259 -0.0439758 37.5283 9.82274e-06C51.6142 0.102643 57.3134 4.57242 61.6261 9.38361C70.6055 19.3935 68.7057 28.1843 68.7057 28.1843ZM45.4394 19.9946H42.7689C42.5091 19.0584 42.1384 18.1682 41.6734 17.3408L43.5606 15.4515L39.1159 11.009L37.2288 12.8983C36.3993 12.4249 35.5133 12.0605 34.575 11.8007V9.13227H28.2913V11.8007C27.3571 12.0605 26.4648 12.4312 25.6396 12.8983L23.7503 11.009L19.3077 15.4515L21.197 17.3408C20.7279 18.1682 20.3613 19.0563 20.1016 19.9946H17.4289V26.2783H20.1016C20.3613 27.2146 20.7299 28.1047 21.197 28.9342L19.3077 30.8214L23.7503 35.2639L25.6396 33.3767C26.4669 33.848 27.355 34.2125 28.2913 34.4722V37.1427H34.575V34.4722C35.5112 34.2125 36.4014 33.8438 37.2288 33.3767L39.1159 35.2639L43.5606 30.8214L41.6734 28.9342C42.1447 28.1047 42.5091 27.2166 42.7689 26.2783H45.4394V19.9946ZM64.814 25.1451H63.2075C63.0546 24.6215 62.8473 24.1272 62.5896 23.6559L63.7249 22.5207L60.7632 19.559L59.63 20.6942C59.1566 20.4345 58.6644 20.2271 58.1387 20.0742V18.4698H53.9496V20.0742C53.4259 20.2271 52.9316 20.4345 52.4583 20.6942L51.323 19.559L48.3613 22.5207L49.4966 23.6559C49.2389 24.1272 49.0295 24.6215 48.8787 25.1451H47.2721V29.3342H48.8787C49.0316 29.8579 49.2389 30.3543 49.4966 30.8235L48.3613 31.9587L51.323 34.9204L52.4583 33.7852C52.9316 34.0449 53.4239 34.2544 53.9496 34.4052V36.0117H58.1387V34.4052C58.6623 34.2544 59.1566 34.0449 59.63 33.7852L60.7653 34.9204L63.727 31.9587L62.5917 30.8235C62.8493 30.3543 63.0588 29.8579 63.2096 29.3342H64.8161L64.814 25.1451Z" fill="#59A2F6"/>
</g>
<defs>
<clipPath id="clip0_1_263">
<rect width="77" height="77" fill="white"/>
</clipPath>
</defs>
</svg>
