<svg width="85" height="75" viewBox="0 0 85 75" fill="none" xmlns="http://www.w3.org/2000/svg">
<path d="M77.3614 7.38014C75.3396 5.35745 72.9392 3.75291 70.2971 2.65818C67.6551 1.56346 64.8233 1 61.9634 1C59.1036 1 56.2718 1.56346 53.6297 2.65818C50.9877 3.75291 48.5873 5.35745 46.5655 7.38014L42.3697 11.576L38.1739 7.38014C34.0901 3.29636 28.5513 1.00212 22.7759 1.00212C17.0006 1.00212 11.4618 3.29636 7.37803 7.38014C3.29424 11.4639 1 17.0027 1 22.7781C1 28.5534 3.29424 34.0922 7.37803 38.176L11.5739 42.3718L42.3697 73.1676L73.1655 42.3718L77.3614 38.176C79.384 36.1542 80.9886 33.7538 82.0833 31.1118C83.178 28.4697 83.7415 25.6379 83.7415 22.7781C83.7415 19.9182 83.178 17.0864 82.0833 14.4444C80.9886 11.8023 79.384 9.40189 77.3614 7.38014Z" stroke="#59A2F6" stroke-width="2" stroke-linecap="round" stroke-linejoin="round"/>
<path d="M62.7585 36.6323H54.9807L49.1474 54.1323L37.4807 19.1323L31.6474 36.6323H23.8696" stroke="#59A2F6" stroke-width="3.88889" stroke-linecap="round" stroke-linejoin="round"/>
</svg>
