<svg width="53" height="43" viewBox="0 0 53 43" fill="none" xmlns="http://www.w3.org/2000/svg">
<path d="M23.1577 7.71927C18.8945 3.45605 11.9824 3.45604 7.71922 7.71925C3.45601 11.9825 3.45602 18.8945 7.71923 23.1577L18.8132 34.2516C23.0764 38.5149 29.9884 38.5149 34.2516 34.2517C38.5148 29.9885 38.5148 23.0764 34.2516 18.8132L23.1577 7.71927Z" fill="white"/>
<path d="M45.2807 23.2614C49.5439 18.9982 49.5439 12.0862 45.2807 7.82297C41.0175 3.55976 34.1055 3.55977 29.8423 7.82299L18.7484 18.9169C14.4851 23.1801 14.4851 30.0922 18.7483 34.3554C23.0115 38.6186 29.9236 38.6186 34.1868 34.3554L45.2807 23.2614Z" fill="#59A2F6" fill-opacity="0.85"/>
</svg>
