<svg width="340" height="294" viewBox="0 0 340 294" fill="none" xmlns="http://www.w3.org/2000/svg">
<g clip-path="url(#clip0_1_202)">
<path d="M0 290.044C0 290.471 0.343475 290.815 0.771189 290.815H339.229C339.657 290.815 340 290.471 340 290.044C340 289.616 339.657 289.273 339.229 289.273H0.771189C0.34347 289.273 0 289.616 0 290.044Z" fill="#3F3C57"/>
<path d="M110.429 31.1397L114.11 47.9351L106.281 71.3127L93.6677 46.1954L95.4178 31.6238L110.429 31.1397Z" fill="#FDB4B4"/>
<path d="M114.793 47.0653H93.0151V73.3786H114.793V47.0653Z" fill="#59A2F6"/>
<path d="M105.838 39.5998C114.052 39.5998 120.71 32.9411 120.71 24.727C120.71 16.513 114.052 9.85423 105.838 9.85423C97.6236 9.85423 90.9648 16.513 90.9648 24.727C90.9648 32.9411 97.6236 39.5998 105.838 39.5998Z" fill="#FDB4B4"/>
<path d="M92.8915 35.7865C92.8915 35.7865 81.8053 15.3121 91.8008 5.45924C101.796 -4.39357 109.82 2.09882 109.82 2.09882L114.402 1.91364C114.402 1.91364 115.358 5.51957 116.899 3.56753C118.44 1.61549 121.224 8.72458 121.224 8.72458C126.392 18.0321 108.476 20.1171 108.476 20.1171C108.476 20.1171 109.77 24.2382 108.455 25.1012C107.14 25.9643 103.627 29.2109 103.627 29.2109L100.482 31.5859L98.6134 28.7386C98.6134 28.7386 96.6614 27.1977 95.6752 27.8449C94.6889 28.4922 96.0455 37.0089 96.0455 37.0089L92.8915 35.7865Z" fill="#2E2E41"/>
<path d="M75.0495 186.413L69.3633 271.234L83.342 271.707L101.822 187.124L75.0495 186.413Z" fill="#2E2E41"/>
<path d="M108.93 185.94L103.244 270.76L117.223 271.234L135.703 186.65L108.93 185.94Z" fill="#2E2E41"/>
<path d="M71.6254 205.792L79.067 113.411L67.655 65.3064C66.6712 58.1555 71.1768 51.3894 78.1306 49.5444L89.2974 46.5818L94.2399 41.6391L105.482 66.4652L112.503 41.658L117.979 45.6404L134.219 52.8054L134.212 52.9731L131.607 111.084L137.422 204.97L137.164 204.973L71.6254 205.792Z" fill="#E8E9EA"/>
<path d="M116.325 270.27L120.373 282.353C120.373 282.353 136.208 284.506 136.454 289.408C136.701 294.31 114.933 291.473 102.187 292.113C89.4415 292.754 100.052 278.951 100.052 278.951L101.41 271.019L116.325 270.27Z" fill="#2E2E41"/>
<path d="M83.2704 269.4L87.3179 281.483C87.3179 281.483 103.153 283.636 103.399 288.538C103.646 293.441 81.8787 290.603 69.1328 291.243C56.3868 291.884 66.9968 278.081 66.9968 278.081L68.3551 270.149L83.2704 269.4Z" fill="#2E2E41"/>
<path d="M63.5227 156.73C63.351 154.347 63.7526 151.959 64.6937 149.763L61.6729 124.982L73.5063 123.89L75.2962 149.145C76.4854 151.215 77.1615 153.541 77.2678 155.926C77.6158 161.893 74.8209 166.908 71.0249 167.129C67.2288 167.351 63.8698 162.695 63.5227 156.73Z" fill="#FDB4B4"/>
<path d="M138.473 160.367C138.327 157.983 138.755 155.599 139.72 153.414L136.969 128.601L148.814 127.638L150.328 152.911C151.495 154.994 152.146 157.327 152.226 159.713C152.509 165.684 149.659 170.668 145.861 170.848C142.063 171.028 138.755 166.336 138.473 160.367Z" fill="#FDB4B4"/>
<path d="M61.6242 146.792L61.5842 146.578L55.417 113.488L62.7042 59.6039C63.3544 54.7932 67.6501 51.3278 72.4941 51.7151C75.0238 51.9176 77.2935 53.1174 78.8856 55.094C80.4775 57.0706 81.1663 59.544 80.825 62.0588L75.3404 102.471L78.7936 145.696L61.6242 146.792Z" fill="#E8E9EA"/>
<path d="M134.818 146.015L122.419 63.2481C121.774 60.8212 122.152 58.2814 123.486 56.1231C124.821 53.9649 126.925 52.4933 129.411 51.9792C134.166 50.9959 138.861 53.9023 140.102 58.5951L152.014 144.976L134.818 146.015Z" fill="#E8E9EA"/>
<path d="M105.846 74.031C106.686 74.031 107.368 73.3495 107.368 72.5088C107.368 71.668 106.686 70.9865 105.846 70.9865C105.005 70.9865 104.323 71.668 104.323 72.5088C104.323 73.3495 105.005 74.031 105.846 74.031Z" fill="#D6D7D8"/>
<path d="M105.846 85.5567C106.686 85.5567 107.368 84.8752 107.368 84.0344C107.368 83.1937 106.686 82.5122 105.846 82.5122C105.005 82.5122 104.323 83.1937 104.323 84.0344C104.323 84.8752 105.005 85.5567 105.846 85.5567Z" fill="#D6D7D8"/>
<path d="M105.846 97.0824C106.686 97.0824 107.368 96.4008 107.368 95.5601C107.368 94.7194 106.686 94.0379 105.846 94.0379C105.005 94.0379 104.323 94.7194 104.323 95.5601C104.323 96.4008 105.005 97.0824 105.846 97.0824Z" fill="#D6D7D8"/>
<path d="M105.846 108.608C106.686 108.608 107.368 107.927 107.368 107.086C107.368 106.245 106.686 105.564 105.846 105.564C105.005 105.564 104.323 106.245 104.323 107.086C104.323 107.927 105.005 108.608 105.846 108.608Z" fill="#D6D7D8"/>
<path d="M105.846 120.134C106.686 120.134 107.368 119.452 107.368 118.612C107.368 117.771 106.686 117.089 105.846 117.089C105.005 117.089 104.323 117.771 104.323 118.612C104.323 119.452 105.005 120.134 105.846 120.134Z" fill="#D6D7D8"/>
<path d="M105.846 131.659C106.686 131.659 107.368 130.978 107.368 130.137C107.368 129.296 106.686 128.615 105.846 128.615C105.005 128.615 104.323 129.296 104.323 130.137C104.323 130.978 105.005 131.659 105.846 131.659Z" fill="#D6D7D8"/>
<path d="M105.846 143.185C106.686 143.185 107.368 142.504 107.368 141.663C107.368 140.822 106.686 140.141 105.846 140.141C105.005 140.141 104.323 140.822 104.323 141.663C104.323 142.504 105.005 143.185 105.846 143.185Z" fill="#D6D7D8"/>
<path d="M105.846 154.711C106.686 154.711 107.368 154.029 107.368 153.189C107.368 152.348 106.686 151.666 105.846 151.666C105.005 151.666 104.323 152.348 104.323 153.189C104.323 154.029 105.005 154.711 105.846 154.711Z" fill="#D6D7D8"/>
<path d="M105.848 163.627L77.0446 159.788L76.49 159.715L61.7695 125.773L53.0029 105.564H75.8371L105.848 163.627Z" fill="#59A2F6"/>
<path d="M221.332 34.8324L239.644 24.8005V53.463H218.465L221.332 34.8324Z" fill="#2E2E41"/>
<path d="M243.57 41.2227L245.26 55.2943L233.08 79.5497L225.52 56.9743L229.074 40.7553L243.57 41.2227Z" fill="#FDB4B4"/>
<path d="M245.89 56.1343H224.859V81.5448H245.89V56.1343Z" fill="#59A2F6"/>
<path d="M263.239 190.701L268.73 272.611L255.231 273.068L237.385 191.387L263.239 190.701Z" fill="#2E2E41"/>
<path d="M230.521 190.243L236.012 272.153L222.513 272.611L204.667 190.93L230.521 190.243Z" fill="#2E2E41"/>
<path d="M277.501 208.074L277.18 208.073L191.184 207.792L191.261 207.487L213.37 119.89L207.832 75.6829C206.783 67.3062 211.267 59.3884 218.991 55.981L221.779 54.751L227.076 50.8988L233.853 74.8441L244.705 50.8801L249.485 55.6598L260.266 58.5203C266.986 60.303 271.339 66.841 270.393 73.7282L270.381 73.7761L253.917 120.755L277.501 208.074Z" fill="#E8E9EA"/>
<path d="M223.38 271.68L237.784 272.404L239.095 280.063C239.095 280.063 249.341 293.392 237.033 292.774C224.724 292.155 203.704 294.896 203.942 290.161C204.18 285.427 219.471 283.348 219.471 283.348L223.38 271.68Z" fill="#2E2E41"/>
<path d="M255.3 270.84L269.704 271.564L271.016 279.223C271.016 279.223 281.262 292.552 268.953 291.934C256.644 291.315 235.624 294.056 235.862 289.321C236.1 284.587 251.392 282.508 251.392 282.508L255.3 270.84Z" fill="#2E2E41"/>
<path d="M268.49 161.196C268.155 166.956 264.911 171.452 261.246 171.238C257.58 171.024 254.881 166.182 255.217 160.42C255.32 158.116 255.973 155.871 257.121 153.871L258.849 129.483L270.277 130.538L267.36 154.468C268.268 156.588 268.656 158.895 268.49 161.196Z" fill="#FDB4B4"/>
<path d="M209.766 159.006C209.308 164.757 205.969 169.183 202.309 168.892C198.649 168.6 196.053 163.701 196.512 157.947C196.664 155.646 197.364 153.415 198.555 151.44L200.802 127.094L212.205 128.392L208.779 152.255C209.642 154.394 209.981 156.709 209.766 159.006Z" fill="#FDB4B4"/>
<path d="M270.331 151.608L253.734 150.548L253.755 150.3L257.07 108.799L251.774 69.7746C251.444 67.3438 252.109 64.9529 253.648 63.0424C255.187 61.1318 257.381 59.972 259.826 59.7762C264.509 59.4071 268.66 62.7517 269.289 67.4016L276.326 119.438L276.319 119.477L270.331 151.608Z" fill="#E8E9EA"/>
<path d="M212.529 150.018L195.906 149.013L195.943 148.751L207.405 65.6158C208.611 61.0498 213.151 58.2413 217.745 59.1914C220.148 59.6882 222.181 61.1107 223.472 63.197C224.762 65.2834 225.127 67.7381 224.498 70.1094L212.529 150.018Z" fill="#E8E9EA"/>
<path d="M233.5 82.1748C234.312 82.1748 234.97 81.5166 234.97 80.7047C234.97 79.8929 234.312 79.2347 233.5 79.2347C232.688 79.2347 232.03 79.8929 232.03 80.7047C232.03 81.5166 232.688 82.1748 233.5 82.1748Z" fill="#D6D7D8"/>
<path d="M233.5 93.305C234.312 93.305 234.97 92.6468 234.97 91.8349C234.97 91.0231 234.312 90.3649 233.5 90.3649C232.688 90.3649 232.03 91.0231 232.03 91.8349C232.03 92.6468 232.688 93.305 233.5 93.305Z" fill="#D6D7D8"/>
<path d="M233.5 104.435C234.312 104.435 234.97 103.777 234.97 102.965C234.97 102.153 234.312 101.495 233.5 101.495C232.688 101.495 232.03 102.153 232.03 102.965C232.03 103.777 232.688 104.435 233.5 104.435Z" fill="#D6D7D8"/>
<path d="M233.5 115.565C234.312 115.565 234.97 114.907 234.97 114.095C234.97 113.283 234.312 112.625 233.5 112.625C232.688 112.625 232.03 113.283 232.03 114.095C232.03 114.907 232.688 115.565 233.5 115.565Z" fill="#D6D7D8"/>
<path d="M233.5 126.696C234.312 126.696 234.97 126.037 234.97 125.226C234.97 124.414 234.312 123.756 233.5 123.756C232.688 123.756 232.03 124.414 232.03 125.226C232.03 126.037 232.688 126.696 233.5 126.696Z" fill="#D6D7D8"/>
<path d="M233.5 137.826C234.312 137.826 234.97 137.168 234.97 136.356C234.97 135.544 234.312 134.886 233.5 134.886C232.688 134.886 232.03 135.544 232.03 136.356C232.03 137.168 232.688 137.826 233.5 137.826Z" fill="#D6D7D8"/>
<path d="M233.5 148.956C234.312 148.956 234.97 148.298 234.97 147.486C234.97 146.674 234.312 146.016 233.5 146.016C232.688 146.016 232.03 146.674 232.03 147.486C232.03 148.298 232.688 148.956 233.5 148.956Z" fill="#D6D7D8"/>
<path d="M233.5 160.086C234.312 160.086 234.97 159.428 234.97 158.616C234.97 157.804 234.312 157.146 233.5 157.146C232.688 157.146 232.03 157.804 232.03 158.616C232.03 159.428 232.688 160.086 233.5 160.086Z" fill="#D6D7D8"/>
<path d="M235.732 48.4043C243.325 48.4043 249.481 42.2482 249.481 34.6544C249.481 27.0605 243.325 20.9045 235.732 20.9045C228.138 20.9045 221.982 27.0605 221.982 34.6544C221.982 42.2482 228.138 48.4043 235.732 48.4043Z" fill="#FDB4B4"/>
<path d="M242.937 18.6031C243.596 19.9431 242.551 21.617 241.168 22.1803C239.786 22.7437 238.223 22.5155 236.749 22.281C235.274 22.0464 233.71 21.8241 232.331 22.3974C230.547 23.1393 229.541 25.0002 228.675 26.7272C227.057 29.951 225.439 33.1749 223.821 36.3987C223.031 37.9739 222.223 39.6198 222.207 41.382C222.179 44.6167 224.746 47.2018 226.126 50.1272C227.807 53.689 227.669 58.0541 225.765 61.5021C223.861 64.9501 220.241 67.3931 216.332 67.8683C215.303 67.9933 214.214 67.9797 213.289 67.5124C212.364 67.0451 211.658 66.0245 211.83 65.0024C212.165 63.0035 215.219 62.5364 215.78 60.5887C216.073 59.572 215.554 58.4863 214.855 57.6921C214.156 56.898 213.272 56.2785 212.605 55.4571C211.067 53.563 210.965 50.6391 212.366 48.6421C213.19 47.4684 214.464 46.5964 214.996 45.2651C215.45 44.1303 215.285 42.8547 215.113 41.6447C214.892 40.0899 214.671 38.5351 214.451 36.9803C214.193 35.1663 213.939 33.2873 214.448 31.5273C215.615 27.4939 220.169 25.5997 222.84 22.3599C224.081 20.8544 224.916 19.0439 226.189 17.5655C228.326 15.0845 231.69 13.7159 234.951 14.0004C238.213 14.2849 241.289 16.2153 242.964 19.0286" fill="#2E2E41"/>
<path d="M240.766 18.8574C240.095 19.0976 239.845 19.9726 240.039 20.6593C240.232 21.346 240.738 21.8917 241.202 22.434C246.444 28.5685 247.662 37.8473 244.182 45.127C243.256 47.0633 242.023 48.8856 241.523 50.973C241.16 52.4918 241.179 54.1578 240.337 55.4726C239.479 56.8112 237.779 57.7082 237.611 59.2892C237.503 60.3038 238.122 61.2893 238.951 61.8841C239.78 62.4789 240.792 62.7511 241.788 62.973C244.377 63.5498 247.023 63.8647 249.675 63.9113C250.539 63.9265 251.431 63.9078 252.224 63.5634C253.017 63.2189 253.694 62.4719 253.703 61.6074C253.71 60.928 253.318 60.3011 253.268 59.6235C253.119 57.5929 255.851 56.5127 256.383 54.5474C256.733 53.2554 256.044 51.9258 255.309 50.8068C254.574 49.6877 253.736 48.5127 253.754 47.1742C253.772 45.8928 254.576 44.7644 254.888 43.5216C255.321 41.8026 254.79 40.0045 254.263 38.312C253.815 36.8731 253.367 35.4343 252.919 33.9953C252.443 32.4658 251.967 30.9362 251.491 29.4066C250.66 26.7362 249.788 23.9884 247.989 21.8467C246.191 19.7049 243.211 18.3011 240.554 19.1756" fill="#2E2E41"/>
<path d="M250.136 72.1385L249.194 71.8638C251.157 65.1317 246.924 52.5686 246.881 52.4425L247.81 52.1257C247.99 52.6527 252.186 65.1115 250.136 72.1385Z" fill="#3F3C57"/>
<path d="M249.665 79.871C251.93 79.871 253.766 78.0351 253.766 75.7705C253.766 73.5058 251.93 71.6699 249.665 71.6699C247.4 71.6699 245.564 73.5058 245.564 75.7705C245.564 78.0351 247.4 79.871 249.665 79.871Z" fill="#3F3C57"/>
<path d="M222.722 90.2878H220.235C219.963 90.2878 219.744 90.068 219.744 89.797C219.744 89.5259 219.963 89.3061 220.235 89.3061H222.722C223.407 89.3061 224.051 89.0391 224.535 88.554C225.019 88.0692 225.285 87.4247 225.283 86.7397L225.253 71.4221C225.253 68.0945 222.547 65.3881 219.22 65.3881C215.893 65.3881 213.187 68.0945 213.187 71.4211L213.217 85.7585C213.22 87.1572 214.36 88.3038 215.759 88.3146L217.466 88.3275C217.736 88.3297 217.955 88.5509 217.953 88.8222C217.951 89.0918 217.731 89.3092 217.462 89.3092H217.458L215.751 89.2963C213.816 89.2814 212.239 87.695 212.235 85.7604L212.205 71.4221C212.205 67.5533 215.352 64.4064 219.22 64.4064C223.088 64.4064 226.235 67.5533 226.235 71.4211L226.265 86.7378C226.267 87.6854 225.899 88.5768 225.23 89.2474C224.56 89.9182 223.669 90.2878 222.722 90.2878Z" fill="#3F3C57"/>
<path d="M217.462 90.5581C218.423 90.5581 219.202 89.7792 219.202 88.8184C219.202 87.8576 218.423 87.0787 217.462 87.0787C216.501 87.0787 215.722 87.8576 215.722 88.8184C215.722 89.7792 216.501 90.5581 217.462 90.5581Z" fill="#3F3C57"/>
<path d="M220.235 91.5367C221.195 91.5367 221.974 90.7578 221.974 89.797C221.974 88.8362 221.195 88.0573 220.235 88.0573C219.274 88.0573 218.495 88.8362 218.495 89.797C218.495 90.7578 219.274 91.5367 220.235 91.5367Z" fill="#3F3C57"/>
<path d="M119.802 64.7809L118.859 64.5062C120.823 57.7741 116.637 45.0164 116.594 44.8903L117.772 45.7783C117.952 46.3053 121.851 57.7539 119.802 64.7809Z" fill="#3F3C57"/>
<path d="M86.6744 65.9769L87.6168 65.7022C85.6534 58.9701 89.887 46.407 89.9296 46.281L88.9216 46.9562C88.7418 47.4833 84.6248 58.95 86.6744 65.9769Z" fill="#3F3C57"/>
<path d="M119.331 72.5134C121.595 72.5134 123.431 70.6776 123.431 68.4129C123.431 66.1482 121.595 64.3123 119.331 64.3123C117.066 64.3123 115.23 66.1482 115.23 68.4129C115.23 70.6776 117.066 72.5134 119.331 72.5134Z" fill="#3F3C57"/>
<path d="M91.0461 91.1939H88.5592C88.2879 91.1939 88.0684 90.9741 88.0684 90.703C88.0684 90.432 88.2879 90.2122 88.5592 90.2122H91.0461C91.7315 90.2122 92.3753 89.9452 92.8594 89.4601C93.3431 88.9753 93.6091 88.3308 93.6077 87.6458L93.5775 72.3282C93.5775 69.0006 90.8711 66.2942 87.5445 66.2942C84.2178 66.2942 81.511 69.0006 81.511 72.3272L81.5412 86.6646C81.5441 88.0633 82.6844 89.2099 84.0831 89.2207L85.7901 89.2336C86.0609 89.2358 86.279 89.457 86.2771 89.7283C86.2752 89.9979 86.0556 90.2153 85.7862 90.2153H85.7824L84.0755 90.2024C82.1408 90.1875 80.5633 88.6011 80.5595 86.6665L80.5293 72.3282C80.5293 68.4594 83.6762 65.3125 87.5445 65.3125C91.4123 65.3125 94.5592 68.4594 94.5592 72.3272L94.5894 87.6439C94.5913 88.5915 94.2236 89.4829 93.554 90.1535C92.8848 90.8243 91.9937 91.1939 91.0461 91.1939Z" fill="#3F3C57"/>
<path d="M85.7864 91.4642C86.7472 91.4642 87.5261 90.6853 87.5261 89.7245C87.5261 88.7637 86.7472 87.9848 85.7864 87.9848C84.8255 87.9848 84.0466 88.7637 84.0466 89.7245C84.0466 90.6853 84.8255 91.4642 85.7864 91.4642Z" fill="#3F3C57"/>
<path d="M88.5591 92.4428C89.5199 92.4428 90.2988 91.6639 90.2988 90.7031C90.2988 89.7423 89.5199 88.9634 88.5591 88.9634C87.5982 88.9634 86.8193 89.7423 86.8193 90.7031C86.8193 91.6639 87.5982 92.4428 88.5591 92.4428Z" fill="#3F3C57"/>
</g>
<defs>
<clipPath id="clip0_1_202">
<rect width="340" height="293.011" fill="white"/>
</clipPath>
</defs>
</svg>
