<svg width="215" height="49" viewBox="0 0 215 49" fill="none" xmlns="http://www.w3.org/2000/svg">
<path d="M60.5581 39.3678V19.4243H65.9729V27.2147H73.1393V19.4243H78.5541V39.3678H73.1393V31.5773H65.9729V39.3678H60.5581ZM88.3702 39.6405C86.7729 39.6405 85.3972 39.3354 84.2409 38.7251C83.0925 38.1084 82.2059 37.2255 81.5832 36.0763C80.9662 34.9208 80.6577 33.5379 80.6577 31.9279C80.6577 30.3829 80.9696 29.0324 81.5923 27.8769C82.2162 26.7213 83.0948 25.8222 84.2317 25.1794C85.3675 24.5367 86.7077 24.2153 88.2537 24.2153C89.3826 24.2153 90.4052 24.3906 91.3204 24.7413C92.2357 25.0918 93.0183 25.6014 93.6673 26.2701C94.3163 26.9323 94.8168 27.7373 95.1676 28.6852C95.5184 29.633 95.6932 30.701 95.6932 31.8889V33.1355H82.3327V30.175H90.7457C90.74 29.7465 90.6292 29.3701 90.4155 29.0454C90.2075 28.7143 89.9253 28.4579 89.5677 28.2761C89.2169 28.0878 88.8181 27.9938 88.3702 27.9938C87.9349 27.9938 87.5361 28.0878 87.1728 28.2761C86.8083 28.4579 86.5169 28.7111 86.2964 29.0357C86.0816 29.3603 85.9685 29.7401 85.9548 30.175V33.3692C85.9548 33.8496 86.0553 34.2781 86.2564 34.6546C86.4586 35.0311 86.7466 35.3266 87.1236 35.5408C87.5007 35.755 87.9543 35.8621 88.4868 35.8621C88.857 35.8621 89.1952 35.8102 89.5003 35.7064C89.8111 35.6024 90.0773 35.4532 90.2978 35.2584C90.5195 35.0571 90.6817 34.8169 90.7857 34.5377H95.6932C95.5241 35.5765 95.1253 36.4789 94.4957 37.2449C93.8661 38.0045 93.0309 38.5953 91.9923 39.0173C90.9605 39.4327 89.7528 39.6405 88.3702 39.6405ZM102.054 39.6015C101.1 39.6015 100.257 39.4458 99.5232 39.1342C98.7954 38.816 98.2241 38.3356 97.8093 37.6929C97.3934 37.0502 97.1854 36.2322 97.1854 35.2389C97.1854 34.4209 97.3248 33.723 97.6048 33.1452C97.8836 32.5609 98.2732 32.0837 98.7725 31.7137C99.273 31.3437 99.8534 31.0612 100.516 30.8665C101.185 30.6717 101.906 30.5451 102.678 30.4867C103.515 30.4218 104.187 30.3439 104.693 30.253C105.206 30.1556 105.577 30.0225 105.804 29.8537C106.031 29.6785 106.145 29.448 106.145 29.1623V29.1234C106.145 28.7339 105.995 28.4352 105.697 28.2275C105.398 28.0197 105.015 27.9159 104.547 27.9159C104.034 27.9159 103.616 28.0294 103.291 28.2567C102.973 28.4773 102.782 28.8182 102.717 29.2792H97.7693C97.8344 28.3703 98.1235 27.5328 98.6365 26.7668C99.1564 25.9942 99.9117 25.3775 100.906 24.9165C101.899 24.4491 103.138 24.2153 104.625 24.2153C105.697 24.2153 106.658 24.3419 107.508 24.5951C108.359 24.8418 109.082 25.1892 109.68 25.6372C110.276 26.0786 110.731 26.598 111.043 27.1952C111.361 27.786 111.521 28.4287 111.521 29.1234V39.3678H106.495V37.2644H106.379C106.079 37.8227 105.716 38.2739 105.288 38.6181C104.866 38.9621 104.382 39.212 103.837 39.3678C103.298 39.5237 102.704 39.6015 102.054 39.6015ZM103.808 36.2127C104.217 36.2127 104.6 36.1283 104.956 35.9595C105.32 35.7907 105.616 35.5472 105.843 35.2291C106.07 34.911 106.183 34.5248 106.183 34.0703V32.8238C106.041 32.8823 105.889 32.9375 105.726 32.9894C105.57 33.0414 105.401 33.09 105.219 33.1355C105.044 33.1809 104.856 33.2231 104.655 33.262C104.46 33.301 104.256 33.3367 104.041 33.3692C103.625 33.4341 103.285 33.5413 103.018 33.6905C102.759 33.8333 102.564 34.0119 102.435 34.2261C102.311 34.4339 102.249 34.6676 102.249 34.9272C102.249 35.3428 102.396 35.6609 102.687 35.8816C102.98 36.1023 103.353 36.2127 103.808 36.2127ZM119.464 19.4243V39.3678H114.088V19.4243H119.464ZM131.123 24.4101V28.3054H121.268V24.4101H131.123ZM123.176 20.8265H128.552V34.5573C128.552 34.765 128.588 34.9403 128.66 35.0831C128.73 35.2194 128.841 35.3233 128.99 35.3947C129.139 35.4596 129.331 35.4921 129.565 35.4921C129.727 35.4921 129.915 35.4726 130.129 35.4336C130.351 35.3947 130.513 35.3622 130.617 35.3363L131.395 39.1146C131.155 39.1861 130.811 39.2737 130.363 39.3776C129.922 39.4814 129.395 39.5496 128.785 39.5821C127.552 39.647 126.517 39.5204 125.68 39.2023C124.842 38.8777 124.213 38.3681 123.79 37.6734C123.368 36.9788 123.164 36.1088 123.176 35.0637V20.8265ZM139.013 30.9542V39.3678H133.638V19.4243H138.818V27.2536H138.974C139.312 26.2993 139.873 25.5559 140.659 25.0236C141.444 24.4847 142.389 24.2153 143.493 24.2153C144.551 24.2153 145.47 24.4556 146.249 24.936C147.034 25.4164 147.641 26.0786 148.069 26.9226C148.504 27.7665 148.719 28.7339 148.712 29.8245V39.3678H143.336V30.9542C143.343 30.214 143.158 29.633 142.782 29.211C142.412 28.789 141.883 28.578 141.194 28.578C140.76 28.578 140.377 28.6754 140.046 28.8702C139.721 29.0585 139.467 29.3311 139.286 29.6882C139.111 30.0387 139.02 30.4607 139.013 30.9542ZM156.751 39.3678V19.4243H165.36C166.84 19.4243 168.135 19.7163 169.245 20.3006C170.355 20.885 171.218 21.7062 171.835 22.7644C172.452 23.8226 172.761 25.0594 172.761 26.4746C172.761 27.9028 172.442 29.1396 171.807 30.1849C171.177 31.23 170.29 32.0351 169.148 32.5999C168.012 33.1646 166.684 33.4471 165.165 33.4471H160.023V29.2403H164.075C164.71 29.2403 165.253 29.1299 165.701 28.9091C166.155 28.6819 166.503 28.3606 166.743 27.945C166.989 27.5296 167.113 27.0394 167.113 26.4746C167.113 25.9033 166.989 25.4164 166.743 25.0139C166.503 24.6048 166.155 24.2932 165.701 24.079C165.253 23.8583 164.71 23.7479 164.075 23.7479H162.165V39.3678H156.751ZM180.2 19.4243V39.3678H174.825V19.4243H180.2ZM192.639 32.8238V24.4101H198.013V39.3678H192.912V36.5244H192.755C192.431 37.4787 191.863 38.2252 191.051 38.7641C190.239 39.2964 189.276 39.5627 188.158 39.5627C187.114 39.5627 186.199 39.3224 185.413 38.842C184.633 38.3616 184.027 37.6994 183.591 36.8554C183.163 36.0114 182.946 35.0441 182.939 33.9535V24.4101H188.315V32.8238C188.321 33.564 188.509 34.145 188.879 34.567C189.256 34.9889 189.782 35.2 190.457 35.2C190.905 35.2 191.291 35.1058 191.616 34.9175C191.947 34.7228 192.2 34.4501 192.376 34.0995C192.557 33.7425 192.645 33.3172 192.639 32.8238ZM214.42 29.2792H209.474C209.447 28.974 209.34 28.7111 209.151 28.4904C208.964 28.2696 208.72 28.1009 208.421 27.984C208.129 27.8607 207.804 27.799 207.448 27.799C206.986 27.799 206.591 27.8834 206.26 28.0522C205.928 28.2209 205.766 28.4611 205.773 28.7728C205.766 28.9936 205.861 29.198 206.055 29.3863C206.256 29.5746 206.642 29.7206 207.214 29.8245L210.252 30.3698C211.784 30.649 212.923 31.1196 213.67 31.7819C214.423 32.4376 214.803 33.3172 214.81 34.4209C214.803 35.4856 214.485 36.4107 213.856 37.1962C213.232 37.9752 212.378 38.5791 211.294 39.0076C210.216 39.4295 208.986 39.6405 207.603 39.6405C205.318 39.6405 203.53 39.173 202.238 38.2383C200.952 37.3034 200.235 36.0698 200.086 34.5377H205.422C205.494 35.0117 205.727 35.3784 206.124 35.6382C206.526 35.8914 207.032 36.018 207.642 36.018C208.136 36.018 208.541 35.9335 208.86 35.7648C209.185 35.596 209.35 35.3557 209.356 35.0441C209.35 34.7585 209.207 34.5312 208.928 34.3624C208.656 34.1937 208.227 34.0574 207.642 33.9535L204.994 33.4861C203.468 33.2198 202.326 32.7134 201.566 31.9669C200.806 31.2203 200.43 30.2595 200.436 29.0844C200.43 28.0457 200.702 27.166 201.254 26.4453C201.813 25.7183 202.608 25.1664 203.64 24.7899C204.679 24.4068 205.909 24.2153 207.331 24.2153C209.493 24.2153 211.197 24.6633 212.443 25.5592C213.697 26.4552 214.355 27.6951 214.42 29.2792Z" fill="white"/>
<path d="M26.46 8.82008C21.5889 3.94891 13.6912 3.9489 8.82001 8.82006C3.94885 13.6912 3.94886 21.5889 8.82003 26.4601L21.496 39.1361C26.3672 44.0072 34.2649 44.0072 39.136 39.1361C44.0072 34.2649 44.0072 26.3672 39.136 21.496L26.46 8.82008Z" fill="white"/>
<path d="M51.738 26.5786C56.6091 21.7074 56.6091 13.8097 51.738 8.93857C46.8668 4.06741 38.9691 4.06742 34.0979 8.93859L21.422 21.6146C16.5508 26.4857 16.5508 34.3834 21.4219 39.2546C26.2931 44.1258 34.1908 44.1257 39.062 39.2546L51.738 26.5786Z" fill="#59A2F6" fill-opacity="0.85"/>
</svg>
